# xmcd
#
# Track frame offsets: 
#        150
#        12033
#        28406
#        43029
#        57399
#        75696
#        91421
#        109635
#        123405
#        137236
#        154458
#        171934
#        186451
#        203705
#        220413
#        235941
#        254686
#        269345
#        310448
#        322633
#
# Disc length: 4517 seconds
#
# Revision: 0
# Processed by: cddbd v1.5.2PL0 Copyright (c) Steve Scherf et al.
# Submitted via: ExactAudioCopy v0.99pb5
#
DISCID=2811a314
DTITLE=Marty Stuart - Whiskey And Rhinestones The Ultimate Collection
DYEAR=2008
DGENRE=Country
TTITLE0=Hillbilly Rock
TTITLE1=Western Girls
TTITLE2=Tempted
TTITLE3=Little Things
TTITLE4=High On Mountain Top
TTITLE5=This One's Going To Hurt You (For A Long Long Time)
TTITLE6=You Can't Stop Love
TTITLE7=Honky Tonkin's What I Do Best
TTITLE8=Kiss Me I'm Gone
TTITLE9=Love And Luck
TTITLE10=That's What Love's About
TTITLE11=Red Red Wine And Cheatin' Songs
TTITLE12=Somebody Saved Me
TTITLE13=Move Along Train
TTITLE14=It's Time To Go Home
TTITLE15=Come Into The House Of The Lord
TTITLE16=Wounded Knee
TTITLE17=Three Chiefs
TTITLE18=Whiskey Ain't Working No More (Live)
TTITLE19=Orange Blossom Special (Live)
EXTD=
EXTT0=
EXTT1=
EXTT2=
EXTT3=
EXTT4=
EXTT5=
EXTT6=
EXTT7=
EXTT8=
EXTT9=
EXTT10=
EXTT11=
EXTT12=
EXTT13=
EXTT14=
EXTT15=
EXTT16=
EXTT17=
EXTT18=
EXTT19=
PLAYORDER=
